<svg width="44" height="44" viewBox="0 0 44 44" fill="none" xmlns="http://www.w3.org/2000/svg">
<path fill-rule="evenodd" clip-rule="evenodd" d="M11 0H33C35.7614 0 38 2.23858 38 5V39C38 41.7614 35.7614 44 33 44H11C8.23858 44 6 41.7614 6 39V5C6 2.23858 8.23858 0 11 0ZM11 2C9.34315 2 8 3.34315 8 5V39C8 40.6569 9.34315 42 11 42H33C34.6569 42 36 40.6569 36 39V5C36 3.34315 34.6569 2 33 2H11Z" fill="#FFB84C"/>
<path d="M12 14.6329C12 13.6113 13.3383 13.2287 13.8782 14.0959L27.7951 36.4472C28.2164 37.1239 27.7298 38 26.9327 38H13.0159C12.4548 38 12 37.5452 12 36.9841V14.6329Z" fill="#FFB84C"/>
<path d="M31.873 29.3207C31.873 30.3458 30.5271 30.7257 29.9912 29.8517L16.3137 7.54692C15.8986 6.87003 16.3857 6 17.1797 6L30.8572 6C31.4182 6 31.873 6.45482 31.873 7.01587L31.873 29.3207Z" fill="#FFB84C"/>
</svg>
