<svg width="36" height="36" viewBox="0 0 36 36" fill="none" xmlns="http://www.w3.org/2000/svg">
<path fill-rule="evenodd" clip-rule="evenodd" d="M6.35294 0H29.6471C33.1557 0 36 2.84431 36 6.35294V29.6471C36 33.1557 33.1557 36 29.6471 36H6.35294C2.84431 36 0 33.1557 0 29.6471V6.35294C0 2.84431 2.84431 0 6.35294 0ZM6.35294 3.17647C4.59863 3.17647 3.17647 4.59863 3.17647 6.35294V29.6471C3.17647 31.4014 4.59863 32.8235 6.35294 32.8235H29.6471C31.4014 32.8235 32.8235 31.4014 32.8235 29.6471V6.35294C32.8235 4.59863 31.4014 3.17647 29.6471 3.17647H6.35294Z" fill="#FFB84C"/>
<path fill-rule="evenodd" clip-rule="evenodd" d="M8.41196 13.2373L8.41187 26.4173C8.41185 27.0345 8.91225 27.5349 9.52947 27.5349L22.7096 27.5349L8.41196 13.2373Z" fill="#FFB84C"/>
<path fill-rule="evenodd" clip-rule="evenodd" d="M27.5352 22.7095L27.5353 9.52942C27.5353 8.91216 27.0349 8.41178 26.4176 8.41178L13.2375 8.41177L27.5352 22.7095Z" fill="#FFB84C"/>
</svg>
