<svg width="36" height="36" viewBox="0 0 36 36" fill="none" xmlns="http://www.w3.org/2000/svg">
<path fill-rule="evenodd" clip-rule="evenodd" d="M6.35294 0H29.6471C33.1557 0 36 2.84431 36 6.35294V29.6471C36 33.1557 33.1557 36 29.6471 36H6.35294C2.84431 36 0 33.1557 0 29.6471V6.35294C0 2.84431 2.84431 0 6.35294 0ZM6.35294 3.17647C4.59863 3.17647 3.17647 4.59863 3.17647 6.35294V29.6471C3.17647 31.4014 4.59863 32.8235 6.35294 32.8235H29.6471C31.4014 32.8235 32.8235 31.4014 32.8235 29.6471V6.35294C32.8235 4.59863 31.4014 3.17647 29.6471 3.17647H6.35294Z" fill="#FFB84C"/>
<path d="M7.41198 10.8231L25.1238 28.535L9.52947 28.5349C8.35997 28.5349 7.41184 27.5868 7.41187 26.4173L7.41198 10.8231Z" fill="#FFB84C"/>
<path d="M28.5352 25.1237L10.8232 7.41177L26.4175 7.41178C27.5871 7.41178 28.5352 8.35988 28.5352 9.52942L28.5352 25.1237Z" fill="#FFB84C"/>
</svg>
