<svg width="25" height="25" viewBox="0 0 25 25" fill="none" xmlns="http://www.w3.org/2000/svg">
<path fill-rule="evenodd" clip-rule="evenodd" d="M5.05882 1H19.9412C22.1828 1 24 2.8172 24 5.05882V19.9412C24 22.1828 22.1828 24 19.9412 24H5.05882C2.8172 24 1 22.1828 1 19.9412V5.05882C1 2.8172 2.8172 1 5.05882 1ZM5.05882 3.02941C3.93801 3.02941 3.02941 3.93801 3.02941 5.05882V19.9412C3.02941 21.062 3.93801 21.9706 5.05882 21.9706H19.9412C21.062 21.9706 21.9706 21.062 21.9706 19.9412V5.05882C21.9706 3.93801 21.062 3.02941 19.9412 3.02941H5.05882Z" fill="#FFB84C"/>
<path d="M5.73542 7.91476L17.0513 19.2307L7.08827 19.2306C6.34108 19.2306 5.73534 18.6249 5.73535 17.8777L5.73542 7.91476Z" fill="#FFB84C"/>
<path d="M19.2307 17.0512L7.91479 5.73529L17.8778 5.73529C18.625 5.73529 19.2307 6.34102 19.2307 7.08823L19.2307 17.0512Z" fill="#FFB84C"/>
</svg>
