<svg width="25" height="25" viewBox="0 0 25 25" fill="none" xmlns="http://www.w3.org/2000/svg">
<path fill-rule="evenodd" clip-rule="evenodd" d="M6.61364 1H18.1136C19.5571 1 20.7273 2.17016 20.7273 3.61364V21.3864C20.7273 22.8298 19.5571 24 18.1136 24H6.61364C5.17017 24 4 22.8298 4 21.3864V3.61364C4 2.17016 5.17017 1 6.61364 1ZM6.61364 2.04545C5.74755 2.04545 5.04545 2.74755 5.04545 3.61364V21.3864C5.04545 22.2524 5.74755 22.9545 6.61364 22.9545H18.1136C18.9797 22.9545 19.6818 22.2524 19.6818 21.3864V3.61364C19.6818 2.74755 18.9797 2.04545 18.1136 2.04545H6.61364Z" fill="#FFB84C"/>
<path d="M7.13647 8.64897C7.13647 8.11498 7.83604 7.91499 8.11828 8.36829L15.393 20.0519C15.6132 20.4056 15.3589 20.8636 14.9422 20.8636H7.6675C7.37422 20.8636 7.13647 20.6258 7.13647 20.3326V8.64897Z" fill="#FFB84C"/>
<path d="M17.5246 16.3267C17.5246 16.8626 16.821 17.0612 16.5409 16.6043L9.3913 4.945C9.17433 4.59117 9.42894 4.13638 9.84399 4.13638L16.9936 4.13638C17.2869 4.13638 17.5246 4.37413 17.5246 4.66741L17.5246 16.3267Z" fill="#FFB84C"/>
</svg>
