<svg width="25" height="25" viewBox="0 0 25 25" fill="none" xmlns="http://www.w3.org/2000/svg">
<path fill-rule="evenodd" clip-rule="evenodd" d="M5.05882 1H19.9412C22.1828 1 24 2.8172 24 5.05882V19.9412C24 22.1828 22.1828 24 19.9412 24H5.05882C2.8172 24 1 22.1828 1 19.9412V5.05882C1 2.8172 2.8172 1 5.05882 1ZM5.05882 3.02941C3.93801 3.02941 3.02941 3.93801 3.02941 5.05882V19.9412C3.02941 21.062 3.93801 21.9706 5.05882 21.9706H19.9412C21.062 21.9706 21.9706 21.062 21.9706 19.9412V5.05882C21.9706 3.93801 21.062 3.02941 19.9412 3.02941H5.05882Z" fill="#FFB84C"/>
<path fill-rule="evenodd" clip-rule="evenodd" d="M6.37433 9.45715L6.37427 17.8777C6.37426 18.272 6.69396 18.5917 7.08829 18.5917L15.5089 18.5917L6.37433 9.45715Z" fill="#FFB84C"/>
<path fill-rule="evenodd" clip-rule="evenodd" d="M18.5919 15.5088L18.5919 7.08823C18.5919 6.69387 18.2722 6.37418 17.8779 6.37418L9.45728 6.37418L18.5919 15.5088Z" fill="#FFB84C"/>
</svg>
